<svg width="196" height="35" viewBox="0 0 196 35" fill="none" xmlns="http://www.w3.org/2000/svg"><path d="M19.5 10C15.1 2 4.66667 0 0 0H195.5C178.5 1 172 14.5 170.5 20C166.1 31.2 158.833 34.3333 156 34.5C156.5 34.6667 150.5 34.5 38 34.5C26 33 21.5 13 19.5 10Z" fill="#7C909F"></path><path d="M19.5 10C15.1 2 4.66667 0 0 0H195.5C178.5 1 172 14.5 170.5 20C166.1 31.2 158.833 34.3333 156 34.5C156.5 34.6667 150.5 34.5 38 34.5C26 33 21.5 13 19.5 10Z" fill="url(#gradient2)"></path><defs><linearGradient id="gradient1" x1="97.75" y1="0" x2="97.75" y2="34.5741" gradientUnits="userSpaceOnUse"><stop stop-color="#7C909F"></stop><stop offset="1" stop-color="#A4B5C2"></stop></linearGradient><linearGradient id="gradient2" x1="97.75" y1="0" x2="97.75" y2="34.5741" gradientUnits="userSpaceOnUse"><stop stop-color="#3553B5"></stop><stop offset="1" stop-color="#5877DB"></stop></linearGradient><linearGradient id="gradient3" x1="97.75" y1="0" x2="97.75" y2="34.5741" gradientUnits="userSpaceOnUse"><stop stop-color="#C22338"></stop><stop offset="1" stop-color="#D73C50"></stop></linearGradient></defs></svg>