<svg xmlns="http://www.w3.org/2000/svg" width="326" height="236" viewBox="0 0 326 236"><path d="M123.45 111.48l6 37.25h57.78l6-37.25zM47.02 74.25L1.88 79.92a2.14 2.14 0 00-1.86 2.37l10.62 83.56a2.13 2.13 0 002.38 1.83L58.2 162a2.12 2.12 0 001.82-2.35L49.45 76.08a2.14 2.14 0 00-2.39-1.83z" fill="#152f46" fill-rule="evenodd"/><path d="M50.95 129.48a19.14 19.14 0 10-19.39 18.89h.12a19.09 19.09 0 0019.27-18.89z" fill="#19364e"/><path d="M31.81 122.19a7.13 7.13 0 107.21 7.13 7.13 7.13 0 00-7.21-7.13z" fill="#152f46" fill-rule="evenodd"/><path d="M36.45 99.16a10.1 10.1 0 10-11.77 8.1 10 10 0 0011.77-7.94z" fill="#274964"/><path d="M26.45 93.62a3.77 3.77 0 103.79 3.76 3.77 3.77 0 00-3.79-3.76z" fill="#19364e" fill-rule="evenodd"/><path d="M267.74 74.25l45.17 5.67a2.14 2.14 0 011.85 2.36l-10.62 83.57a2.13 2.13 0 01-2.38 1.83L256.59 162a2.1 2.1 0 01-1.84-2.34l10.61-83.57a2.14 2.14 0 012.38-1.84z" fill="#152f46" fill-rule="evenodd"/><path d="M283.02 148.34a19 19 0 10-19.13-19 19 19 0 0019.13 19z" fill="#19364e"/><path d="M283.02 122.19a7.13 7.13 0 11-7.17 7.13 7.14 7.14 0 017.17-7.13z" fill="#152f46" fill-rule="evenodd"/><path d="M290.65 107.15a9.92 9.92 0 10-.16 0z" fill="#274964"/><path d="M288.3 93.62a3.77 3.77 0 11-3.79 3.76 3.77 3.77 0 013.79-3.76z" fill="#19364e" fill-rule="evenodd"/><path d="M139.62 211c68.19 0 123.46-12.94 123.46-28.9s-55.27-28.91-123.46-28.91-123.45 12.92-123.45 28.89S71.45 211 139.62 211z" fill="#020611"/><path d="M326.02 236h-44.94l-15.57-12.14-.22-.18-3.27-.42c-9.77-1.27-18.71-10.51-19.86-20.53l-.64-5.57a18.91 18.91 0 01-.13-2.26l-.05-.07-8.75-11.58-4.42-2.09a8.09 8.09 0 01-4.22-9.2 5.54 5.54 0 017.92-3.45l5.31 2.51a7.68 7.68 0 013.74 2l.4.09 11.78 3a6.47 6.47 0 017.56.75l6.77 6a24.82 24.82 0 012.59 1.14v-.52l-6.44-5a4.19 4.19 0 01-.83-5.73 3.89 3.89 0 015.42-.87l.12.09 7.69 6a6.33 6.33 0 011.64 1.27l.22.17a4.19 4.19 0 011.55 3.9v.14l.07 7.39a4.65 4.65 0 01-.11 1.06 23.15 23.15 0 014.44 10.87l.05.49zM80.53 236H27.34l8.77-8.52a23.45 23.45 0 0115-6.55l24.56-23.81-.22-1.31a17.87 17.87 0 0115.35-20l5.42-.73a18 18 0 0120.23 15.26l.55 4.06 3.93-2.43a6.5 6.5 0 018.87 2 6.41 6.41 0 01-2.06 8.82l-16.89 10.43a17.74 17.74 0 01-8.86 3.82l-2.26.3-.22.23z" fill="#020611" fill-rule="evenodd"/><path d="M79.59 130.78h157.43a2.78 2.78 0 002.79-2.54c.34-8 .67-16.19 1-24.36s.69-16.58 1-25 .71-17 1.07-25.6.72-17.43 1.08-26.25a2.67 2.67 0 00-2.59-2.73H75.25a2.6 2.6 0 00-2.63 2.54.91.91 0 000 .17l1.09 26.25q.54 12.99 1.07 25.62.53 12.59 1 25t1 24.36a2.71 2.71 0 002.81 2.54z" fill="#f6ffff" fill-rule="evenodd"/><path d="M214.32 130.78h22.7a2.78 2.78 0 002.79-2.54c.34-8 .67-16.19 1-24.36s.69-16.58 1-25 .71-17 1.07-25.6.72-17.43 1.08-26.25a2.67 2.67 0 00-2.59-2.73h-88.92z" fill="#7c909f" fill-rule="evenodd"/><path d="M81.3 126h154a.54.54 0 00.55-.49q.45-11.43.9-23t.93-23.54q.48-12 1-24.12c.33-8.15.65-16.4 1-24.7a.53.53 0 00-.5-.54H77.5a.54.54 0 00-.53.54q.48 12.45 1 24.71t1 24.13q.47 11.88.93 23.58t.91 23a.53.53 0 00.49.43z" fill="#19364e" fill-rule="evenodd"/><path d="M88.23 118.48h35.79q-.15-8.85-.31-17.78c-.11-6-.21-12-.32-18.06s-.23-12.24-.33-18.41-.22-12.44-.33-18.72h-37.1q.34 9.41.67 18.72t.66 18.42c.21 6 .43 12.09.64 18.06s.42 11.85.63 17.77z" fill="#2b4d69" fill-rule="evenodd"/><path d="M90.79 88.54h5V87.3h-5c-.02.42-.01.83 0 1.24z" fill="#00c4db" fill-rule="evenodd"/><path d="M92.45 91h1.8v-1.23h-1.8V91zM95.52 91h5.68v-1.23h-5.75c.05.43.06.83.07 1.23zM102.36 91h5.66v-1.23h-5.7zM109.22 91h11.53v-1.23h-11.56z" fill="#f6ffff" fill-rule="evenodd"/><path d="M102.45 94.18h5.69v-1.25h-5.69v1.25z" fill="#12d591" fill-rule="evenodd"/><path d="M109.3 94.18h5.72v-1.24h-5.77c.03.41.04.81.05 1.24z" fill="#f6ffff" fill-rule="evenodd"/><path d="M102.54 97.31h5.67V96.1h-5.68z" fill="#12d591" fill-rule="evenodd"/><path d="M109.38 97.31h11.5v-1.23h-11.5a10.1 10.1 0 000 1.23zM102.63 100.48h5.67v-1.24h-5.67c-.03.39-.01.76 0 1.24zM109.45 100.48h1.92v-1.24h-2zM102.71 103.58h5.66v-1.21h-5.66zM109.53 103.57h5.74v-1.22h-5.74zM88.23 118.48h35.79v-1H88.2l.03 1z" fill="#f6ffff" fill-rule="evenodd"/><path d="M129.37 78.3h36.52V62.01c0-5.45.13-11 .13-16.51h-37.15c.1 5.52.18 11 .26 16.51s.16 10.89.24 16.29z" fill="#2f51a3" fill-rule="evenodd"/><path d="M129.37 78.3h35.46l.05-15.3c0-5.47 0-11 .06-16.51h-36c.09 5.19.17 10.37.24 15.51q.06 8.19.19 16.3z" fill="#5877db" fill-rule="evenodd"/><path d="M129.37 78.3h36.52v-.94h-36.53c0 .31.01.64.01.94zM131.2 74.86h5.72v-1.25h-5.72c-.02.39-.01.87 0 1.25zM138.1 76h1.27v-3.52h-1.35c.06 1.16.07 2.34.08 3.52zM145.02 74.86h11.63v-1.25h-11.63zM140.02 75.05h1.26V73.4h-1.26zM142.37 74.63h1.25v-.79h-1.26c.01.25.01.51.01.79z" fill="#f6ffff" fill-rule="evenodd"/><path d="M131.12 69.13h2.9v-1.27h-2.89a7.68 7.68 0 00-.01 1.27z" fill="#12d591" fill-rule="evenodd"/><path d="M134.94 69.13h2.89v-1.27h-2.89c-.01.41 0 .84 0 1.27zM138.79 69.13h2.87v-1.27h-2.87c-.01.41-.01.84 0 1.27z" fill="#f6ffff" fill-rule="evenodd"/><path d="M131.02 66.36h2.89V65.1h-2.89z" fill="#12d591" fill-rule="evenodd"/><path d="M134.91 66.36h2.89V65.1h-2.89c-.01.43 0 .84 0 1.26zM138.76 66.36h2.87V65.1h-2.87c-.01.43 0 .84 0 1.26z" fill="#f6ffff" fill-rule="evenodd"/><path d="M131.02 63.6h2.89v-1.28h-2.89z" fill="#00c4db" fill-rule="evenodd"/><path d="M134.88 63.6h2.89v-1.28h-2.9c0 .42 0 .85.01 1.28zM138.73 63.6h2.88v-1.28h-2.89c0 .42.01.85.01 1.28z" fill="#90ffff" fill-rule="evenodd"/><path d="M131.02 60.82h2.89v-1.27h-2.89z" fill="#b5e98d" fill-rule="evenodd"/><path d="M134.85 60.82h2.9v-1.27h-2.9c-.01.45-.01.85 0 1.27zM138.71 60.82h2.88v-1.27h-2.89c0 .45 0 .85.01 1.27z" fill="#f6ffff" fill-rule="evenodd"/><path d="M130.95 58h2.89v-1.27h-2.89c-.01.46-.01.89 0 1.27z" fill="#b5e98d" fill-rule="evenodd"/><path d="M134.81 58h2.91v-1.27h-2.9c-.01.46-.01.89-.01 1.27zM138.68 58h2.88v-1.27h-2.89c0 .46.01.89.01 1.27zM147.45 66.36h6V65.1h-6zM147.45 63.6h6v-1.28h-6zM147.45 60.82h6v-1.27h-6zM154.87 66.36h2.47V65.1h-2.47zM154.87 63.6h2.47v-1.27h-2.47zM87.64 41.61h1.72v-1.3H87.6c.02.44.03.86.04 1.3zM90.21 41.61h11v-1.3h-11c-.02.44-.01.86 0 1.3zM102.15 41.61h4.21v-1.29h-4.2zM173.45 120.4h-.62q.06-9.9.15-20t.14-20.35l.16-20.77c0-7 .1-14.09.15-21.19h.62c-.06 7.1-.11 14.18-.16 21.19s-.11 13.89-.16 20.77-.11 13.61-.16 20.35-.12 13.39-.12 20z" fill="#f6ffff" fill-rule="evenodd"/><path d="M150.92 114.31h14.83c0-5.21 0-10.45.06-15.69s0-10.61.06-16H150.8q0 8 .06 16l.06 15.69z" fill="#5877db" fill-rule="evenodd"/><path d="M150.92 114.31h14.83v-.9h-14.83zM152.9 112.07h1.49v-1.21h-1.5c.01.39.01.8.01 1.21zM152.9 110h1.49v-1.22h-1.5c0 .36.01.77.01 1.22zM152.89 107.84h1.49v-1.22h-1.5c.01.38.01.86.01 1.22zM152.88 105.72h1.5v-1.24h-1.5zM152.88 103.58h1.5v-1.21h-1.5c-.01.4-.01.8 0 1.21zM152.87 101.48h1.5v-1.23h-1.51c.01.38.01.75.01 1.23zM152.87 99.31h1.5v-1.22h-1.51c0 .39.01.81.01 1.22zM152.86 97.16h1.5v-1.22h-1.51c.01.41.01.82.01 1.22zM152.85 95h1.51v-1.23h-1.51zM152.85 92.87h1.51v-1.23h-1.51c-.01.36-.01.84 0 1.23zM152.84 90.71h1.51v-1.23h-1.51zM155.9 107.84h6.25v-1.22h-6.25zM155.9 105.72h6.26v-1.24h-6.27c.01.42.01.82.01 1.24zM158.63 97.16h3.55v-1.22h-3.54c-.01.41-.01.82-.01 1.22z" fill="#f6ffff" fill-rule="evenodd"/><path d="M186.79 118.48h35.8q.27-8.85.58-17.78t.61-18q.3-9.15.59-18.39t.65-18.83h-37.17q-.15 9.42-.27 18.73t-.26 18.4c-.09 6.06-.2 12.08-.28 18.06s-.17 11.89-.25 17.81z" fill="#2b4d69" fill-rule="evenodd"/><path d="M186.79 118.48h35.8v-1h-35.78c-.01.3-.02.64-.02 1zM189.26 116h6.25v-1.2h-6.25c.02.44.01.84 0 1.2zM189.3 113.93h6.25v-1.2h-6.23c-.01.4-.02.81-.02 1.2zM191.26 104.79h27.56v-.42h-27.56zM197.45 116h6.24v-1.21h-6.24c.05.45 0 .85 0 1.21zM197.52 113.93h6.25v-1.2h-6.24c0 .4 0 .81-.01 1.2z" fill="#f6ffff" fill-rule="evenodd"/><path d="M212.5 113.93h1.74v-1.2h-1.74zM215.16 113.93h1.74v-1.2h-1.74z" fill="#90ffff" fill-rule="evenodd"/><path d="M189.89 100.63h5.86v-1.21h-5.87c.02.4.01.81.01 1.21zM189.93 98h5.87v-1.24h-5.88c.02.38.02.8.01 1.24zM190.02 95.28h5.88v-1.24h-5.88z" fill="#00c4db" fill-rule="evenodd"/><path d="M197.15 100.63h2.45v-1.21h-2.45zM197.21 98h2.45v-1.24h-2.45c.01.38 0 .8 0 1.24z" fill="#f6ffff" fill-rule="evenodd"/><path d="M190.12 86h5.9v-1.24h-5.93c.04.45.03.85.03 1.24z" fill="#0d85d6" fill-rule="evenodd"/><path d="M190.16 83.31h5.94v-1.24h-5.94c.01.41.01.83 0 1.24z" fill="#00c4db" fill-rule="evenodd"/><path d="M190.2 80.6h5.95v-1.26h-5.94c.01.42 0 .83-.01 1.26z" fill="#12d591" fill-rule="evenodd"/><path d="M197.45 86h2.46v-1.24h-2.46zM197.5 83.31h2.46v-1.24h-2.44c-.01.41-.02.83-.02 1.24z" fill="#f6ffff" fill-rule="evenodd"/><path d="M190.35 71.21h6v-1.26h-6c.02.42.01.83 0 1.26z" fill="#b5e98d" fill-rule="evenodd"/><path d="M190.45 68.48h6V67.2h-6v1.28zM190.45 65.7h6v-1.22h-6v1.22zM197.73 71.21h2.48v-1.26h-2.48c.02.42.01.83 0 1.26zM197.78 68.48h2.49V67.2h-2.48zM190.59 56.17h6V54.9h-6zM190.64 53.37h6v-1.28h-6c.01.39 0 .91 0 1.28zM190.68 50.57h6v-1.28h-6c.01.43.01.85 0 1.28zM198.02 56.17h2.5V54.9h-2.5zM198.08 53.37h2.5v-1.28h-2.51c.02.39.02.91.01 1.28zM204.56 100.63h2.46v-.54h-2.46zM209.23 101.24c-.39-.67-.79-1.34-1.17-2l-.5.26c.38.67.78 1.34 1.17 2zM209.38 100.63h.88v-.54h-.88a4.86 4.86 0 010 .54zM211.3 101a.67.67 0 00.69-.64.65.65 0 00-.63-.65.69.69 0 00-.7.65.63.63 0 00.64.64zM213.84 101.41c.2-.35.43-.7.66-1.06l.67-1h-2.53l.59 1c.22.36.4.71.61 1.06zM147.6 69.4h2.48v-.55h-2.48zM152.35 70c-.43-.7-.85-1.4-1.27-2.1-.17.09-.34.17-.49.27.41.7.83 1.4 1.25 2.09zM152.45 69.4h.89v-.55h-.89zM154.45 69.79a.66.66 0 00.74-.58.67.67 0 00-.58-.75h-.16a.67.67 0 00-.69.65.68.68 0 00.69.68zM157.02 70.21c.22-.37.42-.74.64-1.09l.67-1.09h-2.6c.21.37.43.73.65 1.09s.43.73.64 1.09zM98.45 83.56h2.48v-.54h-2.5c-.04.17.02.36.02.54zM103.14 84.18c-.44-.69-.88-1.38-1.29-2.06a5.5 5.5 0 00-.48.28c.42.68.86 1.37 1.29 2a1.91 1.91 0 00.48-.22zM103.27 83.56h.87v-.54h-.87a4.86 4.86 0 000 .54zM105.21 84a.66.66 0 00.67-.65.7.7 0 00-.7-.66.66.66 0 00-.67.65.7.7 0 00.7.66z" fill="#f6ffff" fill-rule="evenodd"/><path d="M107.81 84.36c.21-.35.41-.72.62-1.07s.4-.71.6-1.07h-2.58c.2.36.43.71.66 1.07z" fill="#00c4db" fill-rule="evenodd"/><path d="M111.82 84.18l-1.3-2.06a5.5 5.5 0 00-.48.28l1.28 2a3.05 3.05 0 00.5-.22zM113.58 84.18l-1.28-2.06-.49.28 1.28 2z" fill="#90ffff" fill-rule="evenodd"/><path d="M114.57 83.56h2.45v-.54h-2.48c.02.17.02.36.03.54zM117.91 84.11h.54v-.54h-.56a4.87 4.87 0 00.02.54zM117.89 83h.56v-.52h-.57c0 .16.01.34.01.52zM88.74 78.73h2.49v-.55h-2.5c0 .18 0 .36.01.55zM93.45 79.35c-.44-.69-.88-1.38-1.31-2.07l-.49.27c.44.7.88 1.41 1.32 2.08a5.5 5.5 0 01.48-.28zM93.62 78.73h.83v-.55h-.87c.03.18.03.36.04.55zM95.57 79.12a.64.64 0 00.66-.62.71.71 0 00-.7-.67.65.65 0 00-.67.63.69.69 0 00.71.66z" fill="#f6ffff" fill-rule="evenodd"/><path d="M98.17 79.53c.19-.36.39-.72.6-1.07l.62-1.09h-2.57c.21.37.44.73.66 1.09z" fill="#00c4db" fill-rule="evenodd"/><path d="M102.17 79.35l-1.31-2.07-.46.27c.42.7.86 1.41 1.3 2.08.15-.1.31-.15.47-.28zM103.96 79.35l-1.31-2.07-.48.27c.42.7.86 1.41 1.29 2.08zM104.94 78.73h2.51v-.55h-2.49c-.03.18-.02.36-.02.55zM108.3 79.29h.56v-.56h-.57c0 .19 0 .37.01.56zM108.27 78.17h.57v-.54h-.57c-.01.18 0 .37 0 .54zM111.39 79.35q-.66-1-1.29-2.07l-.49.27c.42.7.85 1.41 1.28 2.08zM113.16 79.35q-.66-1-1.29-2.07l-.51.27 1.32 2.08a5.5 5.5 0 01.48-.28zM114.38 79.53c.21-.36.41-.72.63-1.07s.4-.72.61-1.09h-2.6c.22.37.45.73.67 1.09zM117.69 79.53l.63-1.07c.19-.36.4-.72.61-1.09h-2.58l.68 1.09c.21.35.42.71.66 1.07zM120.45 79.12a.67.67 0 00.68-.66.71.71 0 00-.7-.67.66.66 0 00-.67.65.69.69 0 00.69.68zM107.45 72.19H111v-1.27h-3.55v1.27zM107.37 68.41h2.49v-1.27h-2.49c-.02.43-.01.86 0 1.27zM107.27 64.62h2.48v-1.27h-2.48c-.02.42 0 .85 0 1.27zM107.18 60.81h13v-1.26h-13c-.02.45-.01.84 0 1.26zM104.72 72.19h-.7q-.27-10.47-.56-21.07h.66q.33 10.59.6 21.07z" fill="#f6ffff" fill-rule="evenodd"/><path d="M100.02 65.8l-.09-6.71-4.39-2.61-4.31 2.75.09 6.7-1.57-1-.1-6.61 5.87-3.73 6 3.57.09 6.61zm-5.21.83l.88.52.86-.54-.1-7.78 2 1.17.07 5.41v1.39l-2.74 1.75-2.8-1.68v-1.39l-.07-5.42 1.9-1.21z" fill="#ed4a19" fill-rule="evenodd"/><path d="M99.95 59.09l-4.39-2.61-4.31 2.74-1.57-.85 5.86-3.74 6 3.57zm-1.56.9l-1.89 1.09v-2.26L98.39 60zm-3.63 1.13l-1.93-1 1.9-1.21z" fill="#ef5a27" fill-rule="evenodd"/><path d="M203.09 84.11h2.45v-.54h-2.45a4.86 4.86 0 010 .54zM207.79 84.74l-1.2-2.08-.49.28c.39.69.79 1.37 1.19 2.06zM207.94 84.11h.88v-.54h-.88a4.86 4.86 0 010 .54zM209.88 84.48a.71.71 0 00.7-.66.67.67 0 00-.66-.66.69.69 0 00-.7.66.64.64 0 00.64.66z" fill="#f6ffff" fill-rule="evenodd"/><path d="M212.45 84.91c.23-.37.45-.73.68-1.08s.46-.71.68-1.07h-2.58c.21.36.41.72.62 1.07s.37.72.6 1.08z" fill="#90ffff" fill-rule="evenodd"/><path d="M216.45 84.74c-.42-.7-.81-1.39-1.19-2.08-.16.09-.33.18-.48.28.37.68.76 1.37 1.16 2.06.15-.09.34-.18.51-.26zM218.21 84.74c-.39-.7-.79-1.39-1.17-2.08-.17.09-.34.18-.49.28.38.68.78 1.37 1.18 2.06a5.42 5.42 0 01.48-.26zM219.02 84.66h.56v-.55h-.56zM219.02 83.55h.57v-.54h-.57zM220.45 84.66h.57v-.55h-.57v.55zM220.45 83.55h.54v-.54h-.54a4.86 4.86 0 010 .54zM208.31 69h.89v-.52h-.89c.01.18 0 .37 0 .52zM210.26 69.42a.7.7 0 00.71-.66.67.67 0 00-.67-.67.71.71 0 00-.71.67.65.65 0 00.66.66z" fill="#f6ffff" fill-rule="evenodd"/><path d="M212.84 69.86c.23-.38.45-.74.68-1.1l.69-1.09h-2.61l.63 1.09c.22.36.4.72.61 1.1z" fill="#90ffff" fill-rule="evenodd"/><path d="M216.89 69.68c-.4-.7-.8-1.4-1.19-2.1-.17.09-.34.17-.49.27.38.7.78 1.39 1.18 2.11a4 4 0 01.5-.28zM218.66 69.68c-.4-.7-.8-1.4-1.18-2.1-.17.09-.34.17-.49.27.38.7.78 1.39 1.18 2.11.15-.1.28-.19.49-.28zM220.91 69.6h.54v-.55h-.55a5.09 5.09 0 01.01.55zM220.95 68.48h.55v-.56h-.56a3.45 3.45 0 01.01.56z" fill="#f6ffff" fill-rule="evenodd"/><path d="M203.58 69.86c.2-.38.43-.74.66-1.1l.68-1.09h-2.58c.19.36.4.73.61 1.09s.42.72.63 1.1zM206.61 69.86c.21-.38.44-.74.67-1.1l.68-1.09h-2.59c.19.36.41.73.61 1.09s.47.72.63 1.1z" fill="#90ffff" fill-rule="evenodd"/><path d="M219.58 69.42a.7.7 0 00.71-.66.67.67 0 00-.67-.67.71.71 0 00-.71.67.64.64 0 00.64.66z" fill="#f6ffff" fill-rule="evenodd"/><path d="M91.45 114.48h14c0-1.42-.07-2.84-.11-4.23h-14c0 1.39.05 2.81.11 4.23zM106.62 114.48h14c0-1.41-.06-2.82-.08-4.22h-14c0 1.38.04 2.79.08 4.22z" fill="#19364e" fill-rule="evenodd"/><path d="M93.02 113.12h5.71v-1.22h-5.71zM108.24 113.1h5.69v-1.21h-5.7c-.02.41 0 .81.01 1.21z" fill="#f6ffff" fill-rule="evenodd"/><path d="M102.39 113.54c.19-.35.39-.72.59-1l.62-1h-2.53c.21.35.43.7.65 1z" fill="#90ffff" fill-rule="evenodd"/><path d="M117.16 113.35h.55v-.53h-.56c0 .18 0 .35.01.53zM117.13 112.28h.56v-.54h-.56z" fill="#f6ffff" fill-rule="evenodd"/><path d="M81.3 126h1.23a.51.51 0 01-.52-.47c-.3-7.61-.6-15.3-.89-23s-.61-15.66-.92-23.57-.63-16-.94-24.13-.64-16.42-1-24.72a.5.5 0 01.47-.53h-1.28a.51.51 0 00-.53.49q.49 12.45 1 24.72t1 24.13q.47 11.86.93 23.57c.31 7.73.61 15.42.91 23a.52.52 0 00.54.51zM235.31 126h-1.24a.53.53 0 00.53-.49c.29-7.62.59-15.31.89-23s.61-15.64.91-23.54.63-16 .94-24.12.64-16.41 1-24.71a.52.52 0 00-.49-.53h1.28a.51.51 0 01.53.49q-.5 12.45-1 24.71t-1 24.12q-.47 11.87-.93 23.54t-.9 23a.55.55 0 01-.52.53z" fill="#2b4d69" fill-rule="evenodd"/><path d="M225.85 129.48h2a1.1 1.1 0 001.09-1 1 1 0 00-1-1h-2a1.11 1.11 0 00-1.1 1 1 1 0 001 1z" fill="#152f46" fill-rule="evenodd"/><path d="M107.08 52.19h3.49v-1.07h-3.55zM107.13 54.35h3.49v-1.07h-3.48c-.02.36-.01.72-.01 1.07z" fill="#12d591" fill-rule="evenodd"/><path d="M107.19 56.48h3.48v-1h-3.48z" fill="#b5e98d" fill-rule="evenodd"/><path d="M111.9 52.19h3.55v-1.07h-3.52c-.05.36-.04.71-.03 1.07zM111.95 54.36h3.5v-1.07h-3.5c-.01.35 0 .71 0 1.07z" fill="#12d591" fill-rule="evenodd"/><path d="M112.02 56.48h3.51v-1h-3.51z" fill="#b5e98d" fill-rule="evenodd"/><path d="M255.96 43.48l5.12 8.82a.61.61 0 010 .61.64.64 0 01-.54.31H250.3a.62.62 0 01-.53-.92l5.12-8.82a.6.6 0 01.53-.31.63.63 0 01.54.31z" fill="#d73c50" fill-rule="evenodd"/><path d="M66.63 98.48a1.25 1.25 0 01.51 1.69l-1.12 2.07 2.09 1.11a1.27 1.27 0 01.52 1.7 1.28 1.28 0 01-1.71.52l-2.09-1.09-1.11 2.08a1.27 1.27 0 01-1.71.51 1.24 1.24 0 01-.53-1.68l1.11-2.07-2.09-1.11a1.262 1.262 0 111.2-2.22l2.09 1.11 1.12-2.11a1.28 1.28 0 011.72-.51zM65.45 80.41l4.54-1.87a1 1 0 011.32.51 1 1 0 01-.52 1.32l-4.52 1.87a1 1 0 01-1.33-.49v-.06a1 1 0 01.51-1.21zm1.33 3.07a1.024 1.024 0 00.79 1.89l4.53-1.87a1 1 0 00.57-1.29 1 1 0 00-1.29-.57h-.06z" fill="#274964" fill-rule="evenodd"/><path d="M277.95 78.39l-1.36 2.36 2.36 1.35 1.36-2.35zM275.21 83.16l-1.36 2.32 2.36 1.35 1.36-2.35z" fill="#274964"/><path d="M139.73 169.81a1.2 1.2 0 01-.79 1.36c-.49.08-1-.39-1-1-1.32-13.85 5.29-18.67 14.65-20.25 5-.85 10.74-.75 16.46-.66 7 .11 13.86.22 19.13-1.36 6.39-1.92 10.34-6.48 8.78-17.08h1.86c1.65 12-2.91 17.23-10.24 19.44-5.47 1.64-12.49 1.53-19.55 1.41-5.66-.09-11.36-.18-16.21.64-8.37 1.37-14.23 5.56-13.09 17.5zM93.21 174.61h137.62c1.38 0 2.81.51 3.17 1.14l7.32 12.91q4.17 7.38 9 15.89c.54 1-.45 1.75-2.18 1.75H75.34c-1.74 0-2.66-.79-2.1-1.75l9.28-15.89 7.55-12.91c.38-.63 1.76-1.14 3.14-1.14z" fill="#152f46" fill-rule="evenodd"/><path d="M94.24 173h122.45a3.68 3.68 0 012.82 1q3 5.37 6.51 11.49l6 10.51h2.18v4c.08.68-.75 1.18-2.06 1.18H78.34c-1.26 0-2-.46-2-1.08V196h2.26l6.14-10.52 6.71-11.47a3.61 3.61 0 012.79-1.01z" fill="#76a2c3" fill-rule="evenodd"/><path d="M94.24 168.82h122.45a3.68 3.68 0 012.82 1q3 5.37 6.51 11.49 3.69 6.55 8 14.13c.48.86-.39 1.56-1.94 1.56H78.34c-1.55 0-2.37-.7-1.87-1.56l8.26-14.13 6.72-11.49a3.61 3.61 0 012.79-1z" fill="#f6feff" fill-rule="evenodd"/><path d="M98.16 171.07h7.15c.7 0 1.14.27 1 .58-.5 1.11-1 2.25-1.52 3.41a1.87 1.87 0 01-1.58.62h-7.44c-.73 0-1.16-.28-1-.62l1.81-3.41a2 2 0 011.58-.58z" fill="#e0e5ff" fill-rule="evenodd"/><path d="M98.91 171.24h5.54c.53 0 .88.2.77.45-.39.85-.78 1.72-1.19 2.6-.11.25-.66.46-1.21.46h-5.67c-.55 0-.89-.21-.76-.46l1.35-2.6a1.56 1.56 0 011.17-.45z" fill="#f6feff" fill-rule="evenodd"/><path d="M109.52 171.07h7.16c.68 0 1.16.27 1.06.58-.39 1.11-.78 2.25-1.17 3.41-.12.34-.81.62-1.52.62h-7.46c-.71 0-1.18-.28-1-.62l1.47-3.41c.09-.31.77-.58 1.46-.58z" fill="#e0e5ff" fill-rule="evenodd"/><path d="M110.28 171.24h5.51c.53 0 .89.2.8.45-.29.85-.61 1.72-.92 2.6-.08.25-.6.47-1.15.47h-5.68c-.55 0-.9-.22-.8-.47.37-.88.74-1.75 1.09-2.6.1-.21.62-.45 1.15-.45z" fill="#f6feff" fill-rule="evenodd"/><path d="M120.88 171.07h7.14c.7 0 1.2.27 1.12.58-.26 1.11-.54 2.25-.82 3.41-.08.34-.73.62-1.46.62h-7.41c-.73 0-1.22-.28-1.1-.62.37-1.16.75-2.3 1.11-3.41.09-.31.73-.58 1.42-.58z" fill="#e0e5ff" fill-rule="evenodd"/><path d="M121.67 171.24h5.5c.53 0 .91.2.84.45l-.65 2.6c-.06.25-.56.47-1.11.47h-5.67c-.55 0-.93-.22-.85-.47l.82-2.6c.08-.21.58-.45 1.12-.45z" fill="#f6feff" fill-rule="evenodd"/><path d="M132.25 171.07h7.2c.68 0 1.21.27 1.16.58-.16 1.11-.32 2.25-.48 3.41 0 .34-.67.62-1.38.62h-7.5c-.71 0-1.24-.28-1.16-.62.26-1.16.51-2.3.77-3.41.07-.31.7-.58 1.39-.58z" fill="#76a2c3" fill-rule="evenodd"/><path d="M133.02 171.24h5.51c.53 0 .93.2.89.45-.13.85-.26 1.72-.39 2.6 0 .25-.51.47-1.06.47h-5.68c-.55 0-.94-.21-.89-.46.19-.89.38-1.75.56-2.61.06-.21.55-.45 1.06-.45z" fill="#f6feff" fill-rule="evenodd"/><path d="M143.6 171.07h7.16c.7 0 1.25.27 1.24.58 0 1.11-.09 2.25-.14 3.41 0 .34-.6.62-1.33.62h-7.45c-.72 0-1.26-.28-1.22-.62.15-1.16.29-2.3.43-3.41.03-.31.62-.58 1.31-.58z" fill="#76a2c3" fill-rule="evenodd"/><path d="M144.45 171.24h5.5c.53 0 .94.2.93.45 0 .85-.08 1.72-.13 2.6 0 .25-.46.47-1 .47h-5.71c-.55 0-1-.22-.95-.47.11-.88.21-1.75.31-2.6.05-.21.49-.45 1.05-.45z" fill="#f6feff" fill-rule="evenodd"/><path d="M155.02 171.07h7.16c.68 0 1.26.27 1.28.58.07 1.11.14 2.25.21 3.41 0 .34-.54.62-1.26.62h-7.45c-.71 0-1.3-.28-1.29-.62 0-1.16.06-2.3.08-3.41-.04-.31.53-.58 1.27-.58z" fill="#e0e5ff" fill-rule="evenodd"/><path d="M155.8 171.24h5.51c.53 0 1 .2 1 .45 0 .85.09 1.72.14 2.6 0 .25-.42.47-1 .47h-5.68c-.55 0-1-.22-1-.47v-2.6c.07-.21.49-.45 1.03-.45z" fill="#f6feff" fill-rule="evenodd"/><path d="M166.33 171.08h7.12c.69 0 1.3.26 1.35.57.18 1.11.37 2.25.56 3.41 0 .34-.5.62-1.21.62h-7.45c-.72 0-1.32-.28-1.34-.62-.09-1.16-.18-2.3-.27-3.41.01-.31.55-.57 1.24-.57z" fill="#e0e5ff" fill-rule="evenodd"/><path d="M167.17 171.24h5.51c.53 0 1 .2 1 .45.13.85.26 1.72.4 2.6 0 .25-.37.47-.92.47h-5.71c-.54 0-1-.22-1-.47-.08-.88-.16-1.75-.23-2.6.01-.21.43-.45.95-.45z" fill="#f6feff" fill-rule="evenodd"/><path d="M177.7 171.08h7.16c.68 0 1.31.26 1.39.57q.45 1.67.9 3.42c.09.34-.41.61-1.13.61h-7.45c-.72 0-1.36-.27-1.42-.61-.2-1.16-.41-2.3-.61-3.41-.09-.32.48-.58 1.16-.58z" fill="#e0e5ff" fill-rule="evenodd"/><path d="M178.56 171.24h5.51c.52 0 1 .2 1.07.45.22.85.44 1.72.66 2.6.06.25-.34.47-.87.47h-5.69c-.54 0-1-.22-1.07-.47-.17-.88-.33-1.75-.49-2.6-.04-.21.34-.45.88-.45z" fill="#f6feff" fill-rule="evenodd"/><path d="M189.02 171.08h7.17c.68 0 1.34.26 1.46.57.41 1.11.82 2.25 1.25 3.42.12.34-.37.61-1.09.61h-7.45c-.71 0-1.37-.27-1.47-.61-.32-1.17-.64-2.31-1-3.42-.01-.31.48-.57 1.13-.57z" fill="#76a2c3" fill-rule="evenodd"/><path d="M189.93 171.24h5.52a1.3 1.3 0 011.12.45l.92 2.6c.09.25-.27.47-.82.47h-5.64c-.54 0-1.06-.22-1.13-.47-.25-.88-.5-1.75-.75-2.6-.13-.21.3-.45.78-.45z" fill="#f6feff" fill-rule="evenodd"/><path d="M95.24 176.71h7.51c.73 0 1.19.29 1 .64-.55 1.23-1.1 2.48-1.67 3.77a2 2 0 01-1.68.68h-7.79c-.77 0-1.22-.31-1-.68l2-3.77a2 2 0 011.63-.64z" fill="#e0e5ff" fill-rule="evenodd"/><path d="M96.02 176.89h5.77c.56 0 .92.22.8.49-.42 1-.86 1.91-1.3 2.88a1.48 1.48 0 01-1.29.52h-6c-.58 0-.94-.23-.79-.52.51-1 1-1.93 1.49-2.88a1.61 1.61 0 011.32-.49z" fill="#f6feff" fill-rule="evenodd"/><path d="M107.17 176.71h7.52c.72 0 1.22.29 1.1.64l-1.29 3.77c-.13.37-.86.68-1.61.68h-7.87c-.76 0-1.25-.31-1.08-.68.54-1.28 1.08-2.54 1.61-3.77a2 2 0 011.62-.64z" fill="#e0e5ff" fill-rule="evenodd"/><path d="M107.96 176.89h5.79c.56 0 .93.22.84.49l-1 2.88c-.09.29-.64.52-1.22.52h-6c-.58 0-1-.23-.83-.52l1.21-2.88c.11-.27.7-.49 1.21-.49z" fill="#f6feff" fill-rule="evenodd"/><path d="M119.11 176.71h7.5c.74 0 1.26.29 1.17.64-.3 1.23-.6 2.48-.91 3.77-.09.37-.78.68-1.54.68h-7.88c-.76 0-1.27-.31-1.15-.68.42-1.28.84-2.54 1.24-3.77.16-.35.83-.64 1.57-.64z" fill="#e0e5ff" fill-rule="evenodd"/><path d="M119.92 176.89h5.78c.55 0 .95.22.88.49l-.72 2.88c-.08.29-.6.52-1.17.52h-6c-.57 0-1-.23-.89-.52.31-1 .61-1.93.91-2.88a1.41 1.41 0 011.21-.49z" fill="#f6feff" fill-rule="evenodd"/><path d="M131.02 176.71h7.52c.72 0 1.27.29 1.21.64-.17 1.23-.34 2.48-.53 3.77-.05.37-.7.68-1.45.68h-7.85c-.75 0-1.3-.31-1.22-.68.29-1.28.57-2.54.86-3.77.09-.35.75-.64 1.46-.64z" fill="#76a2c3" fill-rule="evenodd"/><path d="M131.86 176.89h5.79c.56 0 1 .22.94.49-.14 1-.29 1.91-.44 2.88 0 .29-.54.52-1.12.52h-6c-.58 0-1-.23-.93-.52.21-1 .41-1.93.62-2.88.09-.27.59-.49 1.14-.49z" fill="#f6feff" fill-rule="evenodd"/><path d="M142.95 176.71h7.5c.73 0 1.3.29 1.29.64 0 1.23-.1 2.48-.15 3.77 0 .37-.64.68-1.4.68h-7.85c-.75 0-1.32-.31-1.27-.68.16-1.28.32-2.54.47-3.77.08-.35.7-.64 1.41-.64z" fill="#76a2c3" fill-rule="evenodd"/><path d="M143.82 176.89h5.78c.56 0 1 .22 1 .49-.05 1-.09 1.91-.14 2.88 0 .29-.49.52-1.07.52h-6c-.58 0-1-.23-1-.52l.33-2.88c.05-.27.54-.49 1.1-.49z" fill="#f6feff" fill-rule="evenodd"/><path d="M154.89 176.71h7.56c.72 0 1.33.29 1.35.64.08 1.23.15 2.48.23 3.77 0 .37-.56.68-1.32.68h-7.84c-.75 0-1.37-.31-1.36-.68 0-1.28.06-2.54.09-3.77-.03-.35.57-.64 1.29-.64z" fill="#e0e5ff" fill-rule="evenodd"/><path d="M155.77 176.89h5.79c.55 0 1 .22 1 .49l.15 2.88c0 .29-.44.52-1 .52h-6c-.58 0-1-.23-1-.52v-2.88c.04-.27.49-.49 1.06-.49z" fill="#f6feff" fill-rule="evenodd"/><path d="M166.82 176.71h7.52c.72 0 1.36.29 1.42.64.2 1.23.41 2.48.61 3.77.06.37-.51.68-1.26.68h-7.84c-.76 0-1.39-.31-1.41-.68-.1-1.28-.2-2.54-.29-3.77-.03-.35.53-.64 1.25-.64z" fill="#e0e5ff" fill-rule="evenodd"/><path d="M167.71 176.89h5.79c.56 0 1 .22 1.08.49.15 1 .29 1.91.44 2.88 0 .29-.39.52-1 .52h-6c-.56 0-1.06-.23-1.08-.52-.09-1-.17-1.93-.25-2.88.03-.27.47-.49 1.02-.49z" fill="#f6feff" fill-rule="evenodd"/><path d="M178.76 176.71h7.52c.72 0 1.38.29 1.47.64.32 1.23.66 2.48 1 3.77.09.37-.43.68-1.19.68h-7.84c-.75 0-1.43-.31-1.5-.68-.22-1.28-.45-2.54-.66-3.77-.11-.35.46-.64 1.2-.64z" fill="#e0e5ff" fill-rule="evenodd"/><path d="M179.67 176.89h5.78c.55 0 1.07.22 1.14.49.23 1 .48 1.91.72 2.88.08.29-.35.52-.91.52h-6c-.58 0-1.08-.23-1.13-.52q-.28-1.44-.54-2.88c-.03-.27.38-.49.94-.49z" fill="#f6feff" fill-rule="evenodd"/><path d="M190.68 176.71h7.52c.72 0 1.43.29 1.55.64l1.38 3.77c.13.37-.38.68-1.13.68h-7.84c-.76 0-1.45-.31-1.55-.68-.36-1.28-.71-2.54-1.06-3.77-.1-.35.41-.64 1.13-.64z" fill="#76a2c3" fill-rule="evenodd"/><path d="M191.61 176.89h5.84c.55 0 1.08.22 1.18.49l1 2.88c.1.29-.28.52-.86.52h-6c-.56 0-1.11-.23-1.19-.52-.28-1-.55-1.93-.82-2.88-.1-.27.26-.49.85-.49z" fill="#f6feff" fill-rule="evenodd"/><path d="M92.02 182.94h7.9c.77 0 1.25.32 1.07.71-.61 1.36-1.22 2.76-1.86 4.19a2.07 2.07 0 01-1.79.76h-8.26c-.8 0-1.27-.35-1-.76l2.22-4.19a2.2 2.2 0 011.72-.71z" fill="#e0e5ff" fill-rule="evenodd"/><path d="M92.83 183.14h6.07c.59 0 1 .25.83.54l-1.44 3.2a1.63 1.63 0 01-1.38.58h-6.29c-.61 0-1-.26-.81-.58.56-1.09 1.11-2.15 1.66-3.2a1.74 1.74 0 011.36-.54z" fill="#f6feff" fill-rule="evenodd"/><path d="M104.56 182.94h7.89c.76 0 1.28.32 1.15.71-.47 1.36-1 2.76-1.43 4.19-.15.41-.92.76-1.71.76h-8.28c-.8 0-1.31-.35-1.13-.76.61-1.43 1.21-2.83 1.8-4.19a2 2 0 011.71-.71z" fill="#e0e5ff" fill-rule="evenodd"/><path d="M105.45 183.14h6c.59 0 1 .25.88.54-.37 1-.75 2.11-1.13 3.2-.11.32-.69.58-1.3.58h-6.31c-.6 0-1-.26-.85-.58.45-1.09.9-2.15 1.33-3.2a1.51 1.51 0 011.38-.54z" fill="#f6feff" fill-rule="evenodd"/><path d="M117.14 182.94h7.88c.77 0 1.31.32 1.22.71-.33 1.36-.67 2.76-1 4.19-.1.41-.83.76-1.63.76h-8.26c-.81 0-1.34-.35-1.21-.76.47-1.43.93-2.83 1.37-4.19.13-.39.85-.71 1.63-.71z" fill="#e0e5ff" fill-rule="evenodd"/><path d="M118.02 183.15h6.08c.58 0 1 .24.92.53-.26 1-.53 2.11-.8 3.2-.08.32-.63.58-1.24.58h-6.29c-.61 0-1-.26-.93-.58.34-1.09.68-2.15 1-3.2.08-.29.69-.53 1.26-.53z" fill="#f6feff" fill-rule="evenodd"/><path d="M129.69 182.94h7.92c.75 0 1.33.32 1.27.71-.19 1.36-.39 2.76-.59 4.19-.06.41-.75.76-1.54.76h-8.3c-.79 0-1.37-.35-1.28-.76.33-1.43.64-2.83 1-4.19.06-.39.76-.71 1.52-.71z" fill="#76a2c3" fill-rule="evenodd"/><path d="M130.56 183.15h6.1c.59 0 1 .24 1 .53-.16 1-.32 2.11-.48 3.2 0 .32-.58.58-1.19.58h-6.3c-.61 0-1-.26-1-.58l.7-3.2c.06-.29.63-.53 1.17-.53z" fill="#f6feff" fill-rule="evenodd"/><path d="M142.25 182.94h7.91c.77 0 1.38.32 1.36.71 0 1.36-.11 2.76-.16 4.19 0 .41-.68.76-1.49.76h-8.27c-.8 0-1.4-.35-1.34-.76.18-1.43.35-2.83.52-4.19.05-.39.67-.71 1.47-.71z" fill="#76a2c3" fill-rule="evenodd"/><path d="M143.15 183.15h6.08c.59 0 1 .24 1 .53-.05 1-.1 2.11-.15 3.2 0 .32-.52.58-1.13.58h-6.29c-.61 0-1.08-.26-1-.58.12-1.09.25-2.15.37-3.2-.01-.29.53-.53 1.12-.53z" fill="#f6feff" fill-rule="evenodd"/><path d="M154.81 182.94h7.92c.76 0 1.39.32 1.41.71.09 1.36.17 2.76.26 4.19 0 .41-.59.76-1.39.76h-8.28c-.79 0-1.44-.35-1.43-.76 0-1.43.07-2.83.1-4.19.05-.39.62-.71 1.41-.71z" fill="#e0e5ff" fill-rule="evenodd"/><path d="M155.73 183.15h6.09c.59 0 1.08.24 1.09.53.06 1 .11 2.11.17 3.2 0 .32-.46.58-1.07.58h-6.3c-.61 0-1.1-.26-1.09-.58v-3.2c.04-.29.52-.53 1.11-.53z" fill="#f6feff" fill-rule="evenodd"/><path d="M167.37 182.94h7.91c.76 0 1.44.32 1.5.71.22 1.36.45 2.76.68 4.19.07.41-.53.76-1.32.76h-8.28c-.79 0-1.46-.35-1.5-.76-.11-1.43-.22-2.83-.32-4.19-.02-.39.57-.71 1.33-.71z" fill="#e0e5ff" fill-rule="evenodd"/><path d="M168.3 183.15h6.15c.58 0 1.09.24 1.14.53.16 1 .32 2.11.48 3.2.05.32-.4.58-1 .58h-6.31c-.59 0-1.12-.26-1.15-.58-.09-1.09-.18-2.15-.27-3.2-.08-.29.39-.53.96-.53z" fill="#f6feff" fill-rule="evenodd"/><path d="M179.93 182.94h7.92c.76 0 1.46.32 1.56.71.36 1.36.73 2.76 1.1 4.19.11.41-.44.76-1.24.76h-8.25c-.8 0-1.52-.35-1.59-.76-.25-1.43-.5-2.83-.74-4.19-.09-.39.49-.71 1.24-.71z" fill="#e0e5ff" fill-rule="evenodd"/><path d="M180.89 183.15h6.13c.58 0 1.13.24 1.2.53.26 1 .54 2.11.81 3.2.08.32-.36.58-1 .58h-6.31c-.61 0-1.15-.26-1.2-.58-.21-1.09-.41-2.15-.6-3.2-.04-.29.38-.53.97-.53z" fill="#f6feff" fill-rule="evenodd"/><path d="M192.45 182.94h8c.76 0 1.51.31 1.65.7l1.53 4.19c.15.41-.39.76-1.18.76h-8.27c-.8 0-1.54-.35-1.65-.76l-1.17-4.19c-.16-.38.37-.7 1.09-.7z" fill="#e0e5ff" fill-rule="evenodd"/><path d="M193.45 183.15h6.1c.58 0 1.15.24 1.25.53.37 1 .75 2.11 1.13 3.2.11.32-.29.58-.89.58h-6.31c-.59 0-1.17-.26-1.26-.58-.31-1.09-.62-2.15-.92-3.2-.1-.29.34-.53.9-.53z" fill="#f6feff" fill-rule="evenodd"/><path d="M209.45 163.58a6.86 6.86 0 004.84 8.42l12.67 3.48a6.855 6.855 0 003.63-13.22l-12.72-3.46a6.92 6.92 0 00-8.42 4.78z" fill="#d89a87" fill-rule="evenodd"/><path d="M226.68 162.82a7.15 7.15 0 00-.78 10.1l9 10.4a7.28 7.28 0 0010.18.76 7.16 7.16 0 00.77-10.09l-9-10.39a7.26 7.26 0 00-10.17-.78z" fill="#d89a87" fill-rule="evenodd"/><path d="M198.28 185.79a6.4 6.4 0 002.06 8.82l17.4 10.77a6.48 6.48 0 008.87-2.06 6.39 6.39 0 00-2-8.8l-17.4-10.77a6.49 6.49 0 00-8.93 2.04z" fill="#e9ad96" fill-rule="evenodd"/><path d="M216.64 166.26a7.27 7.27 0 01-9.8 2.9l-3.58-1.93a7.17 7.17 0 01-2.93-9.72 7.28 7.28 0 019.8-2.91l3.59 1.93a7.18 7.18 0 012.92 9.73z" fill="#d89a87" fill-rule="evenodd"/><path d="M208.45 157.27a7.18 7.18 0 00-3.22 9.63l6.19 12.25a7.24 7.24 0 009.68 3.2 7.15 7.15 0 003.23-9.59l-6.24-12.28a7.28 7.28 0 00-9.64-3.21z" fill="#e9ad96" fill-rule="evenodd"/><path d="M96.45 158.9a7.16 7.16 0 01.77 10.1l-9 10.39a7.27 7.27 0 01-10.18.77 7.18 7.18 0 01-.77-10.12l9-10.39a7.26 7.26 0 0110.18-.75z" fill="#d89a87" fill-rule="evenodd"/><path d="M86.02 161.83a7.17 7.17 0 012.37 9.85l-7.24 11.69a7.25 7.25 0 01-9.92 2.35 7.16 7.16 0 01-2.38-9.85l7.23-11.67a7.27 7.27 0 019.94-2.37zM116.24 185.79a6.4 6.4 0 01-2.05 8.82l-17.4 10.77a6.48 6.48 0 01-8.87-2.06 6.4 6.4 0 012.1-8.8l17.43-10.78a6.49 6.49 0 018.79 2.05z" fill="#d89a87" fill-rule="evenodd"/><path d="M77.31 167.58l5.42-.73a18 18 0 0120.16 15.26l.91 6.71a17.86 17.86 0 01-15.35 20l-5.43.78a18 18 0 01-20.16-15.27l-.92-6.71a17.88 17.88 0 0115.37-20.04z" fill="#e9ad96" fill-rule="evenodd"/><path d="M93.95 164.24a7.22 7.22 0 006.89 7.52l4.07.19a7.193 7.193 0 00.67-14.37l-4.06-.18a7.23 7.23 0 00-7.57 6.84z" fill="#d89a87" fill-rule="evenodd"/><path d="M103.21 157.83a7.17 7.17 0 014.43 9.12l-4.54 13a7.23 7.23 0 01-13.65-4.77l4.55-13a7.25 7.25 0 019.21-4.35zM228.57 187.34a15.56 15.56 0 00.27 22l16.83 16.31h44.93l-39.85-38.64a15.8 15.8 0 00-22.18.33z" fill="#e9ad96" fill-rule="evenodd"/><path d="M72.02 156.7a4.54 4.54 0 011 6.33l-5.15 7a4.59 4.59 0 01-6.37 1 4.52 4.52 0 01-1-6.32l5.16-7a4.57 4.57 0 016.36-1.01z" fill="#d89a87" fill-rule="evenodd"/><path d="M62.2 163.1a4.6 4.6 0 016 2.38l3.43 8a4.54 4.54 0 01-2.35 6 4.59 4.59 0 01-6-2.39l-3.43-8a4.52 4.52 0 012.34-6z" fill="#e9ad96" fill-rule="evenodd"/><path d="M239.02 158.21a4.53 4.53 0 00.08 6.4l6.26 6a4.58 4.58 0 006.45-.1 4.52 4.52 0 00-.1-6.4l-6.26-6a4.6 4.6 0 00-6.43.1z" fill="#d89a87" fill-rule="evenodd"/><path d="M249.71 162.89a4.59 4.59 0 00-5.5 3.35l-2 8.43a4.56 4.56 0 008.87 2.12l2-8.43a4.56 4.56 0 00-3.37-5.47z" fill="#e9ad96" fill-rule="evenodd"/><path d="M237.22 167.58l-5.42-.73a18 18 0 00-20.16 15.26l-.92 6.71a17.87 17.87 0 0015.36 20l5.42.74a18 18 0 0020.16-15.27l.91-6.71a17.89 17.89 0 00-15.35-20z" fill="#e9ad96" fill-rule="evenodd"/><path d="M102.58 161.19l-1.62 2.94-.47.86.55-.1 1.18-.21-2.8 3.15-2.79 3.17 1.62-3 .47-.86-.56.1-1.17.21 2.79-3.15z" fill="#19364e" fill-rule="evenodd"/><path d="M60.95 233.65h-27.4q-3.42-5.25-6.39-10.81l36.86-35.77a15.81 15.81 0 0122.19.27 15.58 15.58 0 01-.28 22z" fill="#e9ad96" fill-rule="evenodd"/><path d="M51.02 227.54H33.5a95.071 95.071 0 01-4.07-6.89l23.53-22.83a10.07 10.07 0 0114.15.18 9.93 9.93 0 01-.14 14z" fill="#efbcac" fill-rule="evenodd"/><path d="M158.85 183.82c1.31 0 2.37.58 2.37 1.3s-1.06 1.36-2.37 1.36-2.37-.59-2.37-1.31 1.07-1.35 2.37-1.35zM171.66 183.82c1.31 0 2.37.58 2.37 1.3s-1.06 1.31-2.37 1.31-2.37-.59-2.37-1.31 1.06-1.3 2.37-1.3zM145.96 183.82c1.31 0 2.37.58 2.37 1.3s-1.06 1.31-2.37 1.31-2.37-.59-2.37-1.31 1.06-1.3 2.37-1.3z" fill="#76a2c3" fill-rule="evenodd"/><path d="M249.72 211.78a23.26 23.26 0 00-5.27 24.22h63.8l-25.39-24.63a23.61 23.61 0 00-33.14.41z" fill="#e5636c" fill-rule="evenodd"/><path d="M249.72 211.78a23.26 23.26 0 00-5.27 24.22h43.19l-20.76-20.14a23.45 23.45 0 00-14.4-6.51 25.84 25.84 0 00-2.76 2.43z" fill="#d73c50" fill-rule="evenodd"/><path d="M35.17 37.05l15.12-4a1.75 1.75 0 012.16 1.23l4 15a1.74 1.74 0 01-1.23 2.13l-15.12 4a1.75 1.75 0 01-2.1-1.2l-4-15a1.73 1.73 0 011.15-2.16z" fill="#5877db" fill-rule="evenodd"/><path d="M37.92 33.82l15.63.83a2.26 2.26 0 011.55.74 2.22 2.22 0 01.57 1.61l-.83 15.53a2.24 2.24 0 01-2.39 2.11l-15.6-.82a2.24 2.24 0 01-1.54-.74 2.2 2.2 0 01-.58-1.6l.83-15.54a2.16 2.16 0 01.74-1.53 2.24 2.24 0 011.62-.59zm15.58 1.82l-15.63-.82A1.26 1.26 0 0036.56 36l-.83 15.53a1.21 1.21 0 00.32.89 1.16 1.16 0 00.85.41l15.63.82a1.23 1.23 0 001.31-1.17l.83-15.54a1.25 1.25 0 00-1.17-1.3z" fill="#f6ffff" fill-rule="evenodd"/><path d="M46.26 31.54l12.19.64a1.78 1.78 0 011.2.58 1.76 1.76 0 01.41 1.24l-.69 12.08a1.67 1.67 0 01-.58 1.2 1.75 1.75 0 01-1.25.44l-12.09-.63a1.7 1.7 0 01-1.2-.58 1.74 1.74 0 01-.45-1.25l.65-12.08a1.72 1.72 0 01.6-1.18 1.77 1.77 0 011.21-.46zM58.37 33l-12.16-.64a1.06 1.06 0 00-.69.25.92.92 0 00-.33.66l-.64 12a.9.9 0 00.24.69.91.91 0 00.67.32l12.15.69a1 1 0 00.7-.25.91.91 0 00.32-.66l.65-12.09a1 1 0 00-.91-.97z" fill="#f6ffff" fill-rule="evenodd"/><path d="M37.37 45.57l10.31 4.26-.51 1.22-10.31-4.26zm7-7.92l2.33 1-.51 1.22-2.33-1zm-3.15-1.29l2.33 1-.53 1.19-2.33-1zm-1.2 2.93l-.51 1.19 8.65 3.58.51-1.22zm-1.63 3.9l-.51 1.22 5.14 2.14.51-1.23z" fill="#f6ffff" fill-rule="evenodd"/><path d="M244.82 9.68l33-9.63a1.55 1.55 0 011.08.12 1.42 1.42 0 01.68.84l13.06 44.25a1.43 1.43 0 01-1 1.75l-33 9.63a1.43 1.43 0 01-1.76-1l-13.02-44.16a1.36 1.36 0 01.12-1.08 1.44 1.44 0 01.84-.72zm33.2-9.07l-33 9.62a.89.89 0 00-.5.41.78.78 0 00-.07.63l13.06 44.26a.78.78 0 00.4.49.79.79 0 00.64.07l33-9.62a.84.84 0 00.5-.41.86.86 0 00.06-.63L279.02 1.18a.92.92 0 00-.41-.5.86.86 0 00-.59-.07z" fill="#5877db" fill-rule="evenodd"/><path d="M67.33 154.84c-3.38-2.19-7.1-.71-8.28 3.31a1.09 1.09 0 01-.07.24 5.55 5.55 0 018.47-2.28 10.71 10.71 0 014.19 5.9 10.27 10.27 0 00-4.31-7.17zM115.15 155.88c4 3 3.91 7.89-.27 11l-.24.17c3.18-3.33 2.87-7.88-1-10.72a13.4 13.4 0 00-8.74-2.26 12.94 12.94 0 0110.25 1.81zM213.45 154.36c-5-.65-8.33 3-7.5 8.13v.3c0-4.6 3.42-7.66 8.21-7a13.31 13.31 0 017.87 4.39 12.86 12.86 0 00-8.58-5.82z" fill="#f6ffff" fill-rule="evenodd"/><path d="M260.45 108.48l-.1 10.88a.9.9 0 01-.13.49 1 1 0 01-.37.35 1 1 0 01-.5.14.84.84 0 01-.49-.15l-9.41-5.49a1 1 0 01-.37-.36.86.86 0 01-.12-.5 1 1 0 01.13-.49.84.84 0 01.37-.35l9.52-5.37a1.06 1.06 0 01.5-.13 1.2 1.2 0 01.49.14 1 1 0 01.36.36 1.13 1.13 0 01.12.48zm-.76 10.87l.1-10.87a.43.43 0 000-.16.49.49 0 00-.12-.13.43.43 0 00-.16 0 .48.48 0 00-.17 0l-9.52 5.36a.34.34 0 00-.12.12.22.22 0 000 .16.25.25 0 000 .17.2.2 0 00.12.12l9.42 5.52a.25.25 0 00.17 0 .22.22 0 00.16 0 .49.49 0 00.13-.12 1 1 0 000-.17z" fill="#00c4db" fill-rule="evenodd"/><path d="M52.79 219.71A23.19 23.19 0 0159.45 236h-57l17.22-16.7a23.59 23.59 0 0133.12.41z" fill="#fff" fill-rule="evenodd"/><path d="M55.7 219.71A23.23 23.23 0 0162.33 236h-57l17.22-16.7a23.61 23.61 0 0133.15.41z" fill="#d73c50" fill-rule="evenodd"/><path d="M88.11 164.87a3.32 3.32 0 013.42 3.2 3.56 3.56 0 01-.07.8l-.34 1.93a5 5 0 01-4.76 4 3.29 3.29 0 01-3.42-3.19 3.17 3.17 0 01.07-.81l.34-1.93a5 5 0 014.76-4zM76.78 165.29a3.32 3.32 0 013.42 3.2 3.56 3.56 0 01-.07.8l-.34 1.94a5 5 0 01-4.76 4 3.29 3.29 0 01-3.42-3.19 3.17 3.17 0 01.07-.81l.34-1.94a5 5 0 014.76-4z" fill="#e9ad96" fill-rule="evenodd"/><path d="M85.45 165.87a2.76 2.76 0 012.86 2.67 2.8 2.8 0 01-.06.71l-.28 1.62a4.22 4.22 0 01-4 3.38 2.77 2.77 0 01-2.88-2.66 2.52 2.52 0 01.07-.72l.28-1.62a4.25 4.25 0 014.01-3.38zM75.18 166.74a2.76 2.76 0 012.86 2.67 2.8 2.8 0 01-.06.71l-.28 1.62a4.22 4.22 0 01-4 3.38 2.77 2.77 0 01-2.87-2.64 2.48 2.48 0 01.07-.71l.28-1.62a4.23 4.23 0 014-3.41zM66.02 171.29a2.54 2.54 0 013.17 1.69 2.78 2.78 0 01.11.63l.14 1.5a3.85 3.85 0 01-2.76 3.89 2.54 2.54 0 01-3.17-1.68 2.32 2.32 0 01-.11-.64l-.13-1.5a3.82 3.82 0 012.75-3.89z" fill="#efbcac" fill-rule="evenodd"/><path d="M226.95 165.38a3.38 3.38 0 00-3.5 3.26 3.1 3.1 0 00.08.86l.35 2a5.17 5.17 0 004.87 4.12 3.39 3.39 0 003.5-3.27 4 4 0 00-.08-.85l-.35-2a5.17 5.17 0 00-4.87-4.12z" fill="#e9ad96" fill-rule="evenodd"/><path d="M238.7 167.62a2.79 2.79 0 00-2.88 2.69 3.23 3.23 0 00.07.69l.29 1.62a4.21 4.21 0 004 3.38 2.79 2.79 0 002.81-3.38l-.29-1.62a4.24 4.24 0 00-4-3.38zM228.58 165.4a2.9 2.9 0 00-3 2.8 2.55 2.55 0 00.07.73l.3 1.69a4.39 4.39 0 004.16 3.53 2.9 2.9 0 003-2.79 3.64 3.64 0 00-.07-.74l-.29-1.69a4.43 4.43 0 00-4.17-3.53z" fill="#efbcac" fill-rule="evenodd"/><path d="M226.2 129.11h1.32a.72.72 0 00.72-.68.68.68 0 00-.66-.68h-1.33a.72.72 0 00-.72.68.66.66 0 00.66.68z" fill="#b5e98d" fill-rule="evenodd"/></svg>
