<svg width="1920" height="540" viewBox="0 0 1920 540" fill="none" xmlns="http://www.w3.org/2000/svg"><path d="M291.576 64.5002C195.951 46.1002 57.3483 45.1669 0 47.0002V120H1920V67C1568.91 27 1381.86 57 1335.85 67C1208.81 90 1142.8 90 1128.79 89C1057.78 88 1058.28 66 1068.78 53.5C1093.28 31.5 1078.28 18.0001 1068.78 12.0001C1019.77 -9.99986 939.745 5.50014 907.236 14.5001C776.202 47.5001 617.661 73.5001 583.152 77.5001C387.101 102.5 315.582 68.5002 291.576 64.5002Z" fill="#0C1221"/><path d="M291.576 64.5002C195.951 46.1002 57.3483 45.1669 0 47.0002V120H1920V67C1568.91 27 1381.86 57 1335.85 67C1208.81 90 1142.8 90 1128.79 89C1057.78 88 1058.28 66 1068.78 53.5C1093.28 31.5 1078.28 18.0001 1068.78 12.0001C1019.77 -9.99986 939.745 5.50014 907.236 14.5001C776.202 47.5001 617.661 73.5001 583.152 77.5001C387.101 102.5 315.582 68.5002 291.576 64.5002Z" fill="url(#paint0_linear)"/><path d="M0 120H1920V540H0V120Z" fill="#0C1221"/><path d="M0 120H1920V540H0V120Z" fill="url(#paint1_linear)"/><defs><linearGradient id="paint0_linear" x1="960" y1="0.75" x2="960" y2="540" gradientUnits="userSpaceOnUse"><stop stop-color="#131A2D"/><stop offset="1" stop-color="#0A0F1E"/></linearGradient><linearGradient id="paint1_linear" x1="960" y1="0.75" x2="960" y2="540" gradientUnits="userSpaceOnUse"><stop stop-color="#131A2D"/><stop offset="1" stop-color="#0A0F1E"/></linearGradient></defs></svg>