<svg width="51" height="50" viewBox="0 0 51 50" fill="none" xmlns="http://www.w3.org/2000/svg">
<path d="M25.5 0L47.5836 12.5V37.5L25.5 50L3.41635 37.5V12.5L25.5 0Z" fill="white"/>
<g clip-path="url(#clip0)">
<path d="M34 20.039C33.405 20.3 32.771 20.473 32.11 20.557C32.79 20.151 33.309 19.513 33.553 18.744C32.919 19.122 32.219 19.389 31.473 19.538C30.871 18.897 30.013 18.5 29.077 18.5C27.261 18.5 25.799 19.974 25.799 21.781C25.799 22.041 25.821 22.291 25.875 22.529C23.148 22.396 20.735 21.089 19.114 19.098C18.831 19.589 18.665 20.151 18.665 20.756C18.665 21.892 19.25 22.899 20.122 23.482C19.595 23.472 19.078 23.319 18.64 23.078C18.64 23.088 18.64 23.101 18.64 23.114C18.64 24.708 19.777 26.032 21.268 26.337C21.001 26.41 20.71 26.445 20.408 26.445C20.198 26.445 19.986 26.433 19.787 26.389C20.212 27.688 21.418 28.643 22.852 28.674C21.736 29.547 20.319 30.073 18.785 30.073C18.516 30.073 18.258 30.061 18 30.028C19.453 30.965 21.175 31.5 23.032 31.5C29.068 31.5 32.368 26.5 32.368 22.166C32.368 22.021 32.363 21.881 32.356 21.742C33.007 21.28 33.554 20.703 34 20.039Z" fill="#D63B50"/>
</g>
<defs>
<clipPath id="clip0">
<rect width="16" height="16" fill="white" transform="translate(18 17)"/>
</clipPath>
</defs>
</svg>
