<svg width="51" height="50" viewBox="0 0 51 50" fill="none" xmlns="http://www.w3.org/2000/svg">
<path d="M25.5 0L47.5836 12.5V37.5L25.5 50L3.41635 37.5V12.5L25.5 0Z" fill="white"/>
<g clip-path="url(#clip0)">
<path d="M32.1821 25.3015C32.0951 24.9063 31.9024 24.5749 31.6045 24.3072C31.3064 24.0394 30.9633 23.882 30.5747 23.8351C29.3427 23.7012 27.4845 23.6343 24.9999 23.6343C22.5155 23.6343 20.6606 23.7012 19.4351 23.8351C19.0401 23.882 18.6952 24.0394 18.4005 24.3072C18.1058 24.575 17.9116 24.9065 17.8178 25.3015C17.6437 26.0785 17.5566 27.2503 17.5566 28.8173C17.5566 30.411 17.6437 31.5829 17.8178 32.333C17.905 32.7279 18.0975 33.0596 18.3955 33.3273C18.6935 33.5951 19.0367 33.7491 19.425 33.7894C20.6573 33.93 22.5157 34.0003 25 34.0003C27.4842 34.0003 29.3429 33.93 30.5747 33.7894C30.9632 33.7491 31.3046 33.5951 31.5994 33.3273C31.8941 33.0596 32.0883 32.7279 32.182 32.333C32.3561 31.5561 32.4433 30.3843 32.4433 28.8173C32.4432 27.2236 32.356 26.0516 32.1821 25.3015ZM21.8059 26.3163H20.7311V32.0315H19.7267V26.3163H18.672V25.3721H21.8059V26.3163H21.8059ZM24.5179 32.0315H23.6239V31.489C23.2623 31.8976 22.9207 32.1018 22.5993 32.1018C22.2913 32.1018 22.097 31.9778 22.0168 31.7302C21.9633 31.5695 21.9364 31.3249 21.9364 30.9968V27.0695H22.8303V30.7257C22.8303 30.9399 22.8337 31.0571 22.8405 31.0773C22.8606 31.2179 22.9308 31.2882 23.0514 31.2882C23.2322 31.2882 23.4231 31.1476 23.624 30.8663V27.0695H24.5179V32.0315H24.5179ZM27.9331 30.5449C27.9331 31.0337 27.903 31.3687 27.843 31.5496C27.7289 31.9176 27.4914 32.1018 27.1298 32.1018C26.8083 32.1018 26.497 31.9176 26.1955 31.5496V32.0316H25.3017V25.3721H26.1955V27.5518C26.4836 27.1903 26.7949 27.0095 27.1298 27.0095C27.4914 27.0095 27.7289 27.1971 27.843 27.572C27.903 27.7461 27.9331 28.0775 27.9331 28.5664V30.5449ZM31.3282 29.7213H29.5303V30.5952C29.5303 31.0573 29.6842 31.2882 29.9923 31.2882C30.2132 31.2882 30.3472 31.1678 30.3941 30.9265C30.4073 30.8596 30.4141 30.6554 30.4141 30.3139H31.3282V30.4444C31.3282 30.7727 31.3213 30.9668 31.3081 31.0272C31.2881 31.2078 31.218 31.3886 31.0972 31.5694C30.8561 31.9244 30.4942 32.1018 30.0121 32.1018C29.5503 32.1018 29.1886 31.931 28.9274 31.5896C28.7333 31.3419 28.6362 30.9535 28.6362 30.4244V28.6866C28.6362 28.1576 28.7299 27.7692 28.9172 27.5214C29.1785 27.18 29.5368 27.0092 29.9923 27.0092C30.441 27.0092 30.7962 27.18 31.057 27.5214C31.238 27.7692 31.3282 28.1576 31.3282 28.6866V29.7213Z" fill="#D63B50"/>
<path d="M26.6472 27.8228C26.4931 27.8228 26.3426 27.8967 26.1953 28.0438V31.0671C26.3426 31.2144 26.4931 31.288 26.6472 31.288C26.9082 31.288 27.0392 31.0638 27.0392 30.615V28.4958C27.0391 28.047 26.9085 27.8228 26.6472 27.8228Z" fill="#D63B50"/>
<path d="M29.9822 27.8228C29.6809 27.8228 29.5302 28.0506 29.5302 28.5056V28.9677H30.4341V28.5056C30.4341 28.0503 30.2834 27.8228 29.9822 27.8228Z" fill="#D63B50"/>
<path d="M21.2236 20.0078V22.73H22.228V20.0078L23.4432 16H22.4187L21.7358 18.6418L21.0226 16H19.9579C20.1454 16.5626 20.363 17.1886 20.6108 17.8784C20.9256 18.8024 21.1297 19.5124 21.2236 20.0078Z" fill="#D63B50"/>
<path d="M24.7891 22.8002C25.2512 22.8002 25.606 22.6294 25.8538 22.2879C26.0414 22.0401 26.135 21.645 26.135 21.1027V19.3448C26.135 18.8092 26.0411 18.4173 25.8538 18.1695C25.606 17.828 25.2512 17.6572 24.7891 17.6572C24.3403 17.6572 23.9887 17.828 23.7344 18.1695C23.5469 18.4173 23.4532 18.8092 23.4532 19.3448V21.1027C23.4532 21.6383 23.5468 22.0335 23.7344 22.2879C23.9888 22.6294 24.3403 22.8002 24.7891 22.8002ZM24.3571 19.164C24.3571 18.7019 24.5011 18.4708 24.7891 18.4708C25.0771 18.4708 25.221 18.7019 25.221 19.164V21.2733C25.221 21.7422 25.0771 21.9764 24.7891 21.9764C24.5011 21.9764 24.3571 21.7421 24.3571 21.2733V19.164Z" fill="#D63B50"/>
<path d="M27.5512 22.8005C27.8862 22.8005 28.2312 22.5929 28.586 22.1776V22.73H29.5001V17.7178H28.586V21.5448C28.385 21.8328 28.1943 21.9766 28.0133 21.9766C27.8926 21.9766 27.8223 21.903 27.8023 21.7557C27.7956 21.7423 27.7922 21.625 27.7922 21.4041V17.7178H26.8782V21.6755C26.8782 22.0169 26.9052 22.2679 26.9586 22.4287C27.0457 22.6765 27.2432 22.8005 27.5512 22.8005Z" fill="#D63B50"/>
</g>
<defs>
<clipPath id="clip0">
<rect width="18" height="18" fill="white" transform="translate(16 16)"/>
</clipPath>
</defs>
</svg>
